<?xml version="1.0" standalone="no"?>
<!DOCTYPE svg PUBLIC "-//W3C//DTD SVG 20010904//EN"
 "http://www.w3.org/TR/2001/REC-SVG-20010904/DTD/svg10.dtd">
<svg version="1.0" xmlns="http://www.w3.org/2000/svg"
 width="300.000000pt" height="300.000000pt" viewBox="0 0 300.000000 300.000000"
 preserveAspectRatio="xMidYMid meet">

<g transform="translate(0.000000,300.000000) scale(0.100000,-0.100000)"
fill="#000000" stroke="none">
<path d="M1431 2989 c-80 -24 -154 -104 -167 -178 -3 -20 -7 -42 -9 -48 -3
-10 -39 -13 -134 -13 -119 0 -131 -2 -141 -19 -5 -11 -10 -81 -10 -155 0 -123
2 -138 20 -156 19 -19 33 -20 510 -20 477 0 491 1 510 20 18 18 20 33 20 158
0 95 -4 143 -12 155 -11 14 -35 17 -143 19 l-129 3 -8 42 c-13 78 -62 144
-133 177 -45 22 -129 29 -174 15z m132 -149 c31 -24 50 -78 41 -114 -10 -40
-59 -76 -104 -76 -105 0 -145 133 -58 194 31 22 90 20 121 -4z"/>
<path d="M690 2690 c-85 -3 -167 -10 -181 -17 -44 -19 -86 -61 -108 -108 l-21
-45 0 -1170 c0 -1036 2 -1175 16 -1208 19 -47 58 -88 109 -115 l40 -22 955 0
955 0 41 22 c53 28 100 82 114 130 8 27 10 385 8 1213 l-3 1175 -32 46 c-58
84 -83 93 -271 99 l-162 5 0 -67 0 -68 128 0 c141 0 182 -14 202 -66 7 -17 9
-431 8 -1161 l-3 -1135 -33 -29 -32 -29 -915 0 c-662 0 -921 3 -939 11 -58 27
-56 -25 -56 1197 0 704 4 1130 10 1146 5 14 24 35 42 46 29 18 47 20 161 18
l127 -3 0 73 c0 39 -1 71 -2 70 -2 -1 -73 -5 -158 -8z"/>
<path d="M930 2067 c-19 -6 -60 -36 -92 -67 -82 -80 -105 -168 -73 -276 28
-95 101 -163 202 -189 175 -45 342 87 343 271 0 111 -77 224 -178 260 -44 16
-154 16 -202 1z m270 -127 c11 -11 20 -27 20 -35 0 -9 -28 -46 -63 -83 -35
-37 -82 -95 -105 -129 -62 -91 -79 -89 -162 24 -83 111 -86 118 -55 148 32 33
54 24 103 -43 l40 -53 51 65 c59 74 115 126 136 126 8 0 24 -9 35 -20z"/>
<path d="M1442 1908 c-7 -7 -12 -21 -12 -33 0 -12 5 -26 12 -33 17 -17 779
-17 796 0 15 15 15 51 0 66 -17 17 -779 17 -796 0z"/>
<path d="M1617 1593 c-14 -13 -7 -71 9 -77 9 -3 147 -6 309 -6 319 0 320 0
313 57 l-3 28 -311 3 c-171 1 -313 -1 -317 -5z"/>
<path d="M937 1366 c-160 -60 -232 -248 -151 -397 53 -96 132 -143 244 -143
62 0 84 5 126 27 104 53 161 156 152 271 -3 34 -13 77 -23 96 -24 49 -83 108
-130 132 -51 27 -165 34 -218 14z m273 -135 c16 -31 13 -37 -53 -110 -35 -38
-80 -94 -101 -125 -39 -60 -65 -80 -90 -70 -13 5 -126 149 -150 192 -12 20 21
62 49 62 18 0 36 -15 66 -52 23 -29 44 -54 48 -55 3 -2 16 12 28 30 12 18 47
58 77 90 43 45 61 57 85 57 20 0 34 -7 41 -19z"/>
<path d="M1442 1268 c-15 -15 -16 -64 -1 -73 14 -9 784 -9 798 0 19 11 13 63
-8 75 -30 15 -773 14 -789 -2z"/>
<path d="M1622 941 c-8 -5 -12 -22 -10 -42 l3 -34 312 -3 313 -2 6 26 c15 59
15 59 -312 61 -164 2 -305 -1 -312 -6z"/>
<path d="M762 608 c-15 -15 -15 -51 0 -66 17 -17 1459 -17 1476 0 7 7 12 21
12 33 0 12 -5 26 -12 33 -17 17 -1459 17 -1476 0z"/>
</g>
</svg>
